<?xml version="1.0" encoding="UTF-8"?>
<!DOCTYPE svg PUBLIC "-//W3C//DTD SVG 1.1//EN" "http://www.w3.org/Graphics/SVG/1.1/DTD/svg11.dtd">
<!-- Creator: CorelDRAW 2017 -->
<svg xmlns="http://www.w3.org/2000/svg" xml:space="preserve" width="162.56mm" height="91.44mm" version="1.1" style="shape-rendering:geometricPrecision; text-rendering:geometricPrecision; image-rendering:optimizeQuality; fill-rule:evenodd; clip-rule:evenodd"
viewBox="0 0 16256 9144"
 xmlns:xlink="http://www.w3.org/1999/xlink">
 <defs>
  <style type="text/css">
   <![CDATA[
    .str2 {stroke:#FEFAF8;stroke-width:20;stroke-miterlimit:22.9256}
    .str1 {stroke:#FEFBF9;stroke-width:20;stroke-miterlimit:22.9256}
    .str3 {stroke:#FF6600;stroke-width:20;stroke-miterlimit:22.9256}
    .str0 {stroke:#FFFCFA;stroke-width:20;stroke-miterlimit:22.9256}
    .fil1 {fill:#FEFBF9}
    .fil2 {fill:#FF6600}
    .fil0 {fill:#FFFCFA}
   ]]>
  </style>
 </defs>
 <g id="Camada_x0020_1">
  <metadata id="CorelCorpID_0Corel-Layer"/>
  <g id="_806166560">
   <rect class="fil0 str0" x="6506.73" y="3060.99" width="702.73" height="177.8" rx="125.86" ry="101.6"/>
   <rect class="fil0 str0" x="6299.29" y="3351.42" width="596.9" height="204.87" rx="106.91" ry="117.07"/>
   <rect class="fil0 str0" x="6005.36" y="4546.23" width="1288.75" height="254" rx="230.82" ry="145.14"/>
   <rect class="fil1 str1" x="8286.7" y="2620.14" width="1030.96" height="308.14" rx="184.65" ry="176.08"/>
   <rect class="fil0 str2" x="7666.66" y="3626.59" width="728.13" height="249.91" rx="130.41" ry="142.81"/>
   <rect class="fil0 str0" x="7037.49" y="5524.4" width="993.23" height="297.31" rx="177.89" ry="169.89"/>
   <rect class="fil2 str3" x="8461.38" y="5558.43" width="543.01" height="228.83" rx="97.25" ry="130.76"/>
   <rect class="fil0 str0" x="8547.19" y="5049.89" width="601.64" height="249.91" rx="107.76" ry="142.81"/>
   <rect class="fil0 str0" x="8904.71" y="3434.03" width="396.01" height="127" rx="70.93" ry="72.57"/>
   <rect class="fil0 str0" x="8806.78" y="3658.38" width="805.25" height="258.24" rx="144.22" ry="147.57"/>
   <rect class="fil2 str3" x="8479.5" y="2756.19" width="805.25" height="240.68" rx="144.22" ry="137.53"/>
   <rect class="fil2 str3" x="8652.56" y="3042.25" width="805.25" height="240.68" rx="144.22" ry="137.53"/>
   <rect class="fil2 str3" x="7547.02" y="2656.45" width="805.25" height="240.68" rx="144.22" ry="137.53"/>
   <rect class="fil1 str1" x="5064.41" y="3789.86" width="1246.34" height="498.8" rx="223.22" ry="285.03"/>
   <rect class="fil0 str0" x="5046.16" y="2921.21" width="1077.73" height="431.32" rx="193.02" ry="246.47"/>
   <rect class="fil0 str0" x="5143.56" y="5101.46" width="2198.73" height="490.39" rx="393.8" ry="280.22"/>
   <rect class="fil2 str3" x="5637.66" y="2709.86" width="1077.73" height="431.32" rx="193.02" ry="246.47"/>
   <rect class="fil2 str3" x="4997.84" y="4241.53" width="666.73" height="266.83" rx="119.41" ry="152.48"/>
   <rect class="fil2 str3" x="6287.33" y="5042.19" width="1353.92" height="325.99" rx="242.49" ry="186.28"/>
   <rect class="fil2 str3" x="6119.31" y="3838.54" width="871.6" height="260.51" rx="156.11" ry="148.86"/>
   <rect class="fil2 str3" x="6262.71" y="3530.89" width="946.75" height="210.05" rx="169.57" ry="120.03"/>
   <rect class="fil2 str3" x="6656.87" y="4437.89" width="1077.52" height="343.87" rx="192.99" ry="196.5"/>
   <rect class="fil0 str0" x="8352.43" y="4053.45" width="2905.7" height="929.47" rx="520.42" ry="531.13"/>
   <rect class="fil2 str3" x="8958.34" y="5073.99" width="1771.36" height="501.6" rx="317.26" ry="286.63"/>
   <rect class="fil2 str3" x="5582.67" y="5870.71" width="1132.88" height="320.8" rx="202.9" ry="183.31"/>
   <circle class="fil0 str0" cx="6316.23" cy="6257.16" r="266.7"/>
   <circle class="fil2 str3" cx="7999.65" cy="4261.61" r="266.7"/>
  </g>
 </g>
</svg>
